<svg t="1743058966552" class="icon" viewBox="0 0 1024 1024" version="1.1" xmlns="http://www.w3.org/2000/svg" p-id="1467" width="200" height="200"><path d="M514 114.4c-220 0-398.8 178.9-398.8 398.8S294 912 514 912s398.8-178.9 398.8-398.8S734 114.4 514 114.4z m0 754.9c-196.4 0-356.1-159.8-356.1-356.1S317.6 157.1 514 157.1s356.1 159.8 356.1 356.1S710.4 869.3 514 869.3z" fill="#ffffff" p-id="1468"></path><path d="M415.8 307.6c-11.8 0-21.4 9.6-21.4 21.4v368.4c0 11.8 9.6 21.4 21.4 21.4 11.8 0 21.4-9.6 21.4-21.4V329c-0.1-11.8-9.6-21.4-21.4-21.4zM612.2 307.6c-11.8 0-21.4 9.6-21.4 21.4v368.4c0 11.8 9.6 21.4 21.4 21.4 11.8 0 21.4-9.6 21.4-21.4V329c0-11.8-9.6-21.4-21.4-21.4z" fill="#ffffff" p-id="1469"></path></svg>
